<svg width="35" height="38" viewBox="0 0 35 38" fill="none" xmlns="http://www.w3.org/2000/svg">
<path d="M16.6667 18.1149L0.962952 34.7824C1.4074 36.5524 3.03702 37.8799 5.1111 37.8799C7.18517 37.8799 6.59258 37.7324 7.33332 37.2899L25.1111 27.1124L16.8148 18.1149H16.6667Z" fill="#EA4335"/>
<path d="M32.6667 15.3125L24.963 10.8875L16.3704 18.5575L24.963 27.1125L32.5185 22.6875C33.8518 21.95 34.7407 20.6225 34.7407 19C34.7407 17.3775 33.8518 16.05 32.5185 15.3125H32.6667Z" fill="#FBBC04"/>
<path d="M0.962952 3.21741C0.962952 3.51241 0.962952 3.95491 0.962952 4.24991V33.7499C0.962952 34.1924 0.962952 34.4874 0.962952 34.7824L17.2593 18.5574L0.962952 3.21741Z" fill="#4285F4"/>
<path d="M16.8148 18.9999L24.963 10.8874L7.18519 0.709934C6.5926 0.267434 5.85186 0.119934 4.96297 0.119934C3.03704 0.119934 1.25926 1.44743 0.814819 3.21743L16.6667 18.9999H16.8148Z" fill="#34A853"/>
</svg>
