<svg width="126" height="20" viewBox="0 0 126 20" fill="none" xmlns="http://www.w3.org/2000/svg">
<path d="M10.5098 11.8466H4.51489L3.07503 16.0662H0.534912L6.21284 0.455261H8.84805L14.526 16.0662H11.9406L10.5007 11.8466H10.5098ZM5.1352 9.9009H9.88945L7.54403 3.05259H7.48063L5.13974 9.9009H5.1352Z" fill="white"/>
<path d="M26.8146 10.3772C26.8146 13.9137 24.9083 16.1875 22.0286 16.1875C20.3941 16.1875 19.0946 15.464 18.4199 14.1968H18.3656V19.8318H16.0111V4.68822H18.2886V6.58004H18.3339C18.9859 5.35777 20.385 4.56689 21.9834 4.56689C24.8948 4.56689 26.81 6.84966 26.81 10.3772H26.8146ZM24.3967 10.3772C24.3967 8.07194 23.1968 6.55758 21.3675 6.55758C19.5383 6.55758 18.3611 8.10339 18.3611 10.3772C18.3611 12.651 19.57 14.2058 21.3675 14.2058C23.1651 14.2058 24.3967 12.7004 24.3967 10.3772Z" fill="white"/>
<path d="M39.4609 10.3772C39.4609 13.9137 37.5547 16.1875 34.675 16.1875C33.0404 16.1875 31.7409 15.464 31.0663 14.1968H31.012V19.8318H28.6575V4.68822H30.935V6.58004H30.9803C31.6323 5.35777 33.0314 4.56689 34.6297 4.56689C37.5411 4.56689 39.4564 6.84966 39.4564 10.3772H39.4609ZM37.0385 10.3772C37.0385 8.07194 35.8387 6.55758 34.0094 6.55758C32.1801 6.55758 31.0029 8.10339 31.0029 10.3772C31.0029 12.651 32.2118 14.2058 34.0094 14.2058C35.807 14.2058 37.0385 12.7004 37.0385 10.3772Z" fill="white"/>
<path d="M47.8464 11.7163C48.023 13.2621 49.5353 14.2822 51.6046 14.2822C53.6738 14.2822 55.0186 13.2666 55.0186 11.8691C55.0186 10.6558 54.1583 9.93233 52.1162 9.43353L50.0787 8.94823C47.1899 8.2562 45.8496 6.91709 45.8496 4.74217C45.8496 2.05047 48.2132 0.199097 51.5729 0.199097C54.9325 0.199097 57.1738 2.05047 57.2508 4.74217H54.8737C54.7333 3.18287 53.4338 2.2437 51.5366 2.2437C49.6395 2.2437 48.3445 3.19636 48.3445 4.5804C48.3445 5.68134 49.1731 6.33291 51.2016 6.83171L52.9358 7.25411C56.1596 8.00905 57.5043 9.29872 57.5043 11.5815C57.5043 14.5024 55.1635 16.3313 51.4325 16.3313C47.946 16.3313 45.5916 14.5473 45.4376 11.7208H47.8464V11.7163Z" fill="white"/>
<path d="M62.5846 1.99207V4.68375H64.7625V6.53515H62.5846V12.8083C62.5846 13.7834 63.0193 14.2373 63.9792 14.2373C64.2192 14.2373 64.5995 14.2058 64.7535 14.1833V16.0212C64.4908 16.0841 63.9701 16.1291 63.4449 16.1291C61.1221 16.1291 60.2166 15.2663 60.2166 13.0554V6.53515H58.5503V4.68375H60.2166V1.99207H62.5846Z" fill="white"/>
<path d="M66.053 10.3772C66.053 6.79576 68.1765 4.54443 71.4909 4.54443C74.8053 4.54443 76.9289 6.79576 76.9289 10.3772C76.9289 13.9586 74.828 16.2055 71.4909 16.2055C68.1539 16.2055 66.053 13.9676 66.053 10.3772ZM74.5291 10.3772C74.5291 7.91917 73.3972 6.47221 71.4864 6.47221C69.5757 6.47221 68.4437 7.93265 68.4437 10.3772C68.4437 12.8217 69.5757 14.2822 71.4864 14.2822C73.3972 14.2822 74.5291 12.8442 74.5291 10.3772Z" fill="white"/>
<path d="M78.8713 4.68372H81.1172V6.62048H81.1715C81.5292 5.3353 82.5751 4.56689 83.929 4.56689C84.2686 4.56689 84.5493 4.61183 84.7349 4.65227V6.83618C84.5493 6.75979 84.1327 6.69688 83.6754 6.69688C82.1586 6.69688 81.2258 7.71245 81.2258 9.31218V16.0616H78.8713V4.68372Z" fill="white"/>
<path d="M95.5837 12.7229C95.2668 14.79 93.2428 16.2055 90.6438 16.2055C87.3113 16.2055 85.2375 13.9901 85.2375 10.4311C85.2375 6.87216 87.3204 4.54895 90.5442 4.54895C93.7681 4.54895 95.7105 6.71039 95.7105 10.1615V10.9614H87.6147V11.1007C87.6147 13.0464 88.8463 14.3226 90.6981 14.3226C92.0067 14.3226 93.03 13.707 93.347 12.7229H95.5792H95.5837ZM87.6283 9.3257H93.3605C93.3062 7.58666 92.1833 6.43629 90.5487 6.43629C88.9142 6.43629 87.746 7.60463 87.6283 9.3257Z" fill="white"/>
<path d="M105.246 0.720383H107.08V15.3247H105.246V7.95514H103.901C103.734 10.557 102.67 12.8218 100.515 12.8218C98.1511 12.8218 97.1051 10.0986 97.1051 7.19123C97.1051 4.28384 98.1511 1.61461 100.515 1.61461C102.62 1.61461 103.684 3.73113 103.888 6.25206H105.242V0.720383H105.246ZM102.122 7.18673C102.122 5.04326 101.601 3.40309 100.519 3.40309C99.4369 3.40309 98.9796 5.03877 98.9796 7.18673C98.9796 9.3347 99.4596 10.9569 100.519 10.9569C101.579 10.9569 102.122 9.33919 102.122 7.18673ZM110.286 0.405823V16.0572H108.452V0.405823H110.286Z" fill="white"/>
<path d="M118.581 4.0771C118.581 7.26309 120.066 9.55035 122.475 10.849L121.334 12.3139C119.885 11.4961 118.069 9.71661 117.598 8.0989C117.181 9.81098 115.393 11.8331 113.817 12.7184L112.613 11.3029C115.235 9.75706 116.566 7.28106 116.566 4.1445V1.72242H118.585V4.0771H118.581ZM125.97 16.0571H124.005V7.45631H120.845V5.81164H124.005V0.410278H125.97V16.0616V16.0571Z" fill="white"/>
</svg>
