<svg width="71" height="12" viewBox="0 0 71 12" fill="none" xmlns="http://www.w3.org/2000/svg">
<path d="M5.10272 3.03096C5.10272 5.2643 6.1532 6.88202 7.83756 7.78974L7.03159 8.81877C6.03546 8.25707 4.74503 7.00335 4.40544 5.86646C4.12018 7.07076 2.85691 8.49073 1.74759 9.11086L0.900879 8.10878C2.74824 7.03031 3.68099 5.29126 3.68099 3.08937V1.47166H5.10272V3.03545V3.03096ZM9.80717 4.74305H11.4146V5.86196H9.80717V11.5329H8.45334V0.536987H9.80717V4.74305Z" fill="white"/>
<path d="M13.117 7.28639L12.4197 6.22589C14.0362 5.63273 15.0821 4.41047 15.0821 2.73434V2.50066H12.868V1.39073H18.6818V2.50066H16.5129V2.67592C16.5129 4.37451 17.6675 5.50242 19.0666 5.99223L18.3286 7.05272C17.3642 6.7112 16.2005 5.70913 15.8066 4.78344C15.5258 5.77653 14.2807 6.86849 13.1125 7.2819L13.117 7.28639ZM21.7969 10.1444V11.2228H14.1584V7.77621H15.5394V10.1399H21.7969V10.1444ZM18.4192 3.50724H20.2031V0.527954H21.5977V8.52214H20.2031V4.5947H18.4192V3.50724Z" fill="white"/>
<path d="M37.1012 6.64829V7.74474H32.7454V11.5464H31.378V7.74474H27.0856V6.64829H37.1012ZM31.2965 2.15464H27.9956V1.07617H36.1685V2.15464H32.8676C32.931 3.55666 34.7874 4.51829 36.6303 4.71601L36.0779 5.7945C34.5203 5.5788 32.6911 4.78792 32.0843 3.6016C31.4731 4.76995 29.6574 5.59228 28.0998 5.79898L27.561 4.72501C29.4355 4.53178 31.2331 3.56116 31.301 2.15464H31.2965Z" fill="white"/>
<path d="M48.3619 6.00126V7.07075H44.083V9.14682H42.702V7.07075H38.3463V6.00126H48.3619ZM41.0086 10.1489H47.1801V11.2364H39.6457V8.09081H41.0086V10.1534V10.1489ZM47.0578 5.04411H39.6729V1.12115H47.0578V5.04411ZM45.6723 2.19964H41.063V3.96114H45.6723V2.19964Z" fill="white"/>
<path d="M55.9913 4.26218H49.53V3.18371H55.9913V4.26218ZM52.8172 9.43886C51.2868 9.43886 50.173 8.46823 50.173 7.10665C50.173 5.74508 51.2868 4.77445 52.8172 4.77445C54.3476 4.77445 55.4796 5.73609 55.4796 7.10665C55.4796 8.47722 54.3386 9.43886 52.8172 9.43886ZM54.4925 2.34788H51.1329V1.24245H54.4925V2.34788ZM52.8172 8.36488C53.5779 8.36488 54.1711 7.84361 54.1711 7.10665C54.1711 6.3697 53.596 5.83944 52.8172 5.83944C52.0384 5.83944 51.4951 6.3652 51.4951 7.10665C51.4951 7.84811 52.0611 8.36488 52.8172 8.36488ZM58.2371 5.07553H59.8264V6.19444H58.2371V11.5284H56.8697V0.541443H58.2371V5.08003V5.07553Z" fill="white"/>
<path d="M61.6511 9.52876L60.8769 8.46377C63.4351 7.2415 65.0244 5.05309 65.2282 2.81525H61.4972V1.69184H66.6861C66.6001 5.00815 65.0108 7.71333 61.6511 9.52876ZM70.0141 11.5329H68.6421V0.532471H70.0141V11.5329Z" fill="white"/>
</svg>
