<svg width="73" height="13" viewBox="0 0 73 13" fill="none" xmlns="http://www.w3.org/2000/svg">
<path d="M5.18488 3.30839C5.18488 4.26046 5.04186 5.18094 4.75581 6.06984C4.46977 6.95874 4.06305 7.74837 3.54012 8.43423C3.01719 9.12008 2.40934 9.648 1.72551 10.0045L0.907593 8.93508C1.53332 8.63276 2.08753 8.18155 2.57024 7.59045C3.05741 6.99936 3.43284 6.32704 3.70101 5.57802C3.96918 4.829 4.10774 4.07095 4.11221 3.30388V1.15608H5.18488V3.30388V3.30839ZM5.42176 3.30839C5.42176 4.04839 5.5469 4.77485 5.8106 5.48777C6.0743 6.2007 6.4408 6.84143 6.91904 7.40545C7.3928 7.96947 7.9336 8.40264 8.53698 8.70496L7.72801 9.76983C7.05759 9.4224 6.46762 8.91251 5.95363 8.24922C5.43964 7.58593 5.04633 6.82338 4.76922 5.97058C4.49211 5.11778 4.35802 4.22888 4.35802 3.30839V1.1606H5.41729V3.30839H5.42176ZM10.7941 0.118286V12.6576H9.47557V0.118286H10.7941ZM12.783 5.12229V6.25484H10.4991V5.12229H12.783Z" fill="white"/>
<path d="M17.5833 2.66774C17.5833 3.43481 17.4358 4.16127 17.1542 4.8381C16.8726 5.51943 16.4659 6.11053 15.943 6.6204C15.4156 7.13028 14.7943 7.51382 14.0792 7.77553L13.3998 6.6926C14.0256 6.47602 14.5753 6.16468 15.0446 5.75407C15.5139 5.34346 15.8715 4.86968 16.1262 4.33273C16.3765 3.8003 16.5017 3.24079 16.5017 2.66323V1.70664H17.5833V2.66323V2.66774ZM20.5108 1.08848V2.1714H13.8066V1.08848H20.5108ZM16.9933 8.49747V11.8906H15.6793V8.49747H16.9933ZM24.0729 11.3131V12.4005H15.6793V11.3131H24.0729ZM17.8335 2.66774C17.8335 3.19115 17.9542 3.70554 18.1956 4.20188C18.4369 4.69822 18.7811 5.14492 19.237 5.53748C19.6884 5.93004 20.2203 6.22785 20.8326 6.43541L20.1622 7.49577C19.4649 7.25211 18.8615 6.88662 18.352 6.40382C17.8425 5.92102 17.4492 5.357 17.1765 4.71175C16.9039 4.07103 16.7654 3.38968 16.7654 2.67225V1.71567H17.838V2.67225L17.8335 2.66774ZM23.1522 3.52505V4.60798H20.0504V3.52505H23.1522ZM23.7422 0.12738V9.30967H22.4282V0.12738H23.7422Z" fill="white"/>
<path d="M37.0032 6.00663V7.10309H25.6641V6.00663H37.0032ZM31.3135 8.08674C32.203 8.08674 32.9672 8.17699 33.6108 8.35296C34.2544 8.52894 34.7461 8.78613 35.0902 9.12906C35.4299 9.47199 35.6042 9.88259 35.6087 10.3654C35.6087 10.8482 35.4344 11.2633 35.0902 11.6017C34.7506 11.9401 34.2589 12.2019 33.6153 12.3778C32.9717 12.5538 32.2074 12.644 31.3135 12.644C30.4196 12.644 29.6464 12.5538 29.0028 12.3778C28.3592 12.2019 27.8631 11.9447 27.519 11.6017C27.1748 11.2588 27.0005 10.8482 27.0005 10.3654C27.0005 9.88259 27.1748 9.47199 27.519 9.12906C27.8631 8.78613 28.3592 8.52894 29.0028 8.35296C29.6464 8.17699 30.4152 8.08674 31.3091 8.08674H31.3135ZM35.6042 0.569458V1.65238H28.3771V4.37322H27.072V0.569458H35.5997H35.6042ZM35.6802 3.8453V4.9192H27.0765V3.8453H35.6802ZM31.3135 9.11101C30.6833 9.11101 30.147 9.16515 29.7001 9.26442C29.2576 9.36369 28.9179 9.50808 28.6855 9.69308C28.4531 9.87808 28.3369 10.1037 28.3413 10.3654C28.3413 10.6316 28.4531 10.8572 28.6855 11.0467C28.9179 11.2317 29.2531 11.3716 29.6956 11.4664C30.1381 11.5611 30.6744 11.6062 31.3091 11.6062C31.9437 11.6062 32.4711 11.5611 32.9136 11.4664C33.3561 11.3716 33.6958 11.2317 33.9326 11.0467C34.1695 10.8617 34.2857 10.6316 34.2902 10.3654C34.2902 10.1037 34.1695 9.88259 33.9326 9.69308C33.6958 9.50808 33.3561 9.36369 32.9136 9.26442C32.4711 9.16515 31.9348 9.11552 31.3091 9.11101H31.3135Z" fill="white"/>
<path d="M49.2853 6.96324V8.04616H37.9194V6.96324H49.2853ZM47.9221 8.91702V12.5583H46.5991V9.9864H39.1932V8.91702H47.9221ZM47.8551 0.41156V3.57008H40.686V5.15837H39.381V2.58643H46.541V1.46741H39.3452V0.41156H47.8551ZM48.1098 4.72972V5.77203H39.381V4.72972H48.1098ZM44.2527 5.2441V7.51373H42.9565V5.2441H44.2527Z" fill="white"/>
<path d="M57.5001 2.08114V3.16407H50.1434V2.08114H57.5001ZM53.8754 4.09357C54.4609 4.09357 54.9883 4.21992 55.4531 4.46809C55.9179 4.71626 56.2889 5.06369 56.5571 5.50588C56.8252 5.94807 56.9593 6.44893 56.9593 7.01295C56.9593 7.57698 56.8252 8.08234 56.5571 8.52453C56.2889 8.96672 55.9224 9.30965 55.4531 9.55782C54.9838 9.80599 54.4609 9.92782 53.8754 9.92782C53.2899 9.92782 52.7535 9.80599 52.2842 9.55782C51.8149 9.30965 51.444 8.96672 51.1803 8.52002C50.9166 8.07331 50.7825 7.57246 50.7825 7.01295C50.7825 6.45344 50.9166 5.94807 51.1803 5.50588C51.444 5.06369 51.8105 4.71626 52.2842 4.46809C52.7535 4.21992 53.2854 4.09357 53.8754 4.09357ZM53.8754 5.19003C53.5223 5.19003 53.2094 5.26674 52.9278 5.42016C52.6507 5.57357 52.4318 5.79015 52.2753 6.06539C52.1189 6.34064 52.0384 6.65649 52.0429 7.00844C52.0429 7.36039 52.1189 7.67624 52.2753 7.95149C52.4318 8.22673 52.6507 8.4388 52.9278 8.5877C53.205 8.7366 53.5223 8.81331 53.8754 8.81331C54.2285 8.81331 54.5369 8.7366 54.8095 8.5877C55.0821 8.4388 55.3011 8.22673 55.4576 7.95149C55.614 7.67624 55.6989 7.36039 55.6989 7.00844C55.6989 6.65649 55.614 6.34064 55.4576 6.06539C55.3011 5.79015 55.0821 5.57357 54.805 5.42016C54.5279 5.26674 54.2195 5.19003 53.8709 5.19003H53.8754ZM54.519 0.280786V2.54138H53.2049V0.280786H54.519ZM59.8868 0.118347V12.6577H58.5817V0.118347H59.8868ZM61.8802 5.19906V6.30454H59.5963V5.19906H61.8802Z" fill="white"/>
<path d="M69.1163 1.46748C69.1163 2.73992 68.9152 3.92211 68.5264 5.00955C68.1375 6.09698 67.5163 7.09417 66.6581 8.00563C65.8 8.91709 64.6826 9.70672 63.2971 10.37L62.5999 9.29611C63.7932 8.72758 64.772 8.06429 65.5452 7.30624C66.3185 6.5482 66.8861 5.70442 67.2526 4.7704C67.6236 3.83638 67.8068 2.8076 67.8113 1.67956V1.46748H69.1163ZM68.3878 1.46748V2.52785H63.2077V1.46748H68.3878ZM72.8081 0.118347V12.6577H71.4852V0.118347H72.8081Z" fill="white"/>
</svg>
