<svg width="127" height="26" viewBox="0 0 127 26" fill="none" xmlns="http://www.w3.org/2000/svg">
<path d="M40.889 7.65497C37.3335 7.65497 34.5187 10.31 34.5187 13.9975C34.5187 17.685 37.3335 20.34 40.889 20.34C44.4446 20.34 47.2594 17.685 47.2594 13.9975C47.2594 10.31 44.4446 7.65497 40.889 7.65497ZM40.889 17.685C38.9631 17.685 37.3335 16.0625 37.3335 13.85C37.3335 11.6375 38.9631 10.015 40.889 10.015C42.815 10.015 44.4446 11.49 44.4446 13.85C44.4446 16.21 42.815 17.685 40.889 17.685ZM27.1113 7.65497C23.5557 7.65497 20.7409 10.31 20.7409 13.9975C20.7409 17.685 23.5557 20.34 27.1113 20.34C30.6668 20.34 33.4816 17.685 33.4816 13.9975C33.4816 10.31 30.6668 7.65497 27.1113 7.65497ZM27.1113 17.685C25.1853 17.685 23.5557 16.0625 23.5557 13.85C23.5557 11.6375 25.1853 10.015 27.1113 10.015C29.0372 10.015 30.6668 11.49 30.6668 13.85C30.6668 16.21 29.0372 17.685 27.1113 17.685ZM10.6668 9.57247V12.2275H17.0372C16.889 13.7025 16.2964 14.8825 15.5557 15.62C14.815 16.3575 13.1853 17.5375 10.6668 17.5375C6.66682 17.5375 3.70386 14.44 3.70386 10.4575C3.70386 6.47497 6.81497 3.37747 10.6668 3.37747C14.5187 3.37747 14.3705 4.26247 15.5557 5.29497L17.4816 3.37747C15.852 1.90247 13.7779 0.722473 10.815 0.722473C5.48163 0.722473 0.889038 5.14747 0.889038 10.4575C0.889038 15.7675 5.48163 20.1925 10.815 20.1925C16.1483 20.1925 15.852 19.3075 17.6298 17.39C19.4076 15.62 20.0002 13.1125 20.0002 11.195C20.0002 9.27747 20.0002 10.015 20.0002 9.57247H10.9631H10.6668ZM77.9261 11.6375C77.3335 10.1625 75.852 7.65497 72.5928 7.65497C69.3335 7.65497 66.6668 10.1625 66.6668 13.9975C66.6668 17.8325 69.3335 20.34 72.889 20.34C76.4446 20.34 77.4816 18.57 78.0742 17.5375L76.0002 16.0625C75.2594 17.095 74.3705 17.8325 72.889 17.8325C71.4076 17.8325 70.5187 17.2425 69.7779 15.915L78.2224 12.375L77.9261 11.6375ZM69.3335 13.7025C69.3335 11.3425 71.2594 10.015 72.5928 10.015C73.9261 10.015 74.6668 10.605 74.9631 11.3425L69.3335 13.7025ZM62.3705 19.75H65.1853V1.31247H62.3705V19.75ZM57.9261 8.98247C57.3335 8.24497 56.1483 7.50747 54.6668 7.50747C51.5557 7.50747 48.5928 10.31 48.5928 13.85C48.5928 17.39 51.4076 20.045 54.6668 20.045C57.9261 20.045 57.3335 19.3075 57.9261 18.57V19.455C57.9261 21.815 56.5928 23.1425 54.5187 23.1425C52.4446 23.1425 51.7039 21.9625 51.4076 20.93L49.0372 21.9625C49.7779 23.585 51.5557 25.65 54.6668 25.65C57.7779 25.65 60.5928 23.7325 60.5928 19.16V7.94997H57.9261V8.98247ZM54.6668 17.685C52.7409 17.685 51.1113 16.0625 51.1113 13.85C51.1113 11.6375 52.7409 10.015 54.6668 10.015C56.5928 10.015 58.0742 11.6375 58.0742 13.85C58.0742 16.0625 56.5928 17.685 54.6668 17.685ZM90.815 1.31247H84.1483V19.75H86.9631V12.8175H90.815C93.9261 12.8175 96.8891 10.605 96.8891 7.06497C96.8891 3.52497 93.9261 1.31247 90.815 1.31247ZM90.9631 10.1625H86.9631V3.81997H90.9631C93.0372 3.81997 94.2224 5.58997 94.2224 6.91747C94.2224 8.24497 93.0372 10.015 90.9631 10.015V10.1625ZM108 7.50747C105.926 7.50747 103.852 8.39247 103.111 10.31L105.63 11.3425C106.222 10.31 107.111 10.015 108.148 10.015C109.185 10.015 110.963 10.9 111.111 12.375C110.667 12.375 109.482 11.785 108.296 11.785C105.63 11.785 102.963 13.26 102.963 15.915C102.963 18.57 105.185 20.045 107.556 20.045C109.926 20.045 110.371 19.16 111.111 18.275V19.75H113.778V12.67C113.778 9.42497 111.259 7.50747 108.148 7.50747H108ZM107.704 17.685C106.815 17.685 105.482 17.2425 105.482 16.0625C105.482 14.8825 107.111 14.145 108.445 14.145C109.778 14.145 110.222 14.44 110.963 14.735C110.815 16.505 109.333 17.685 107.704 17.685ZM123.259 7.94997L120.148 15.915L116.889 7.94997H113.926L118.815 19.16L116 25.355H118.815L126.371 7.94997H123.259ZM98.3705 19.75H101.185V1.31247H98.3705V19.75Z" fill="white"/>
</svg>
