<svg width="200" height="60" viewBox="0 0 200 60" fill="none" xmlns="http://www.w3.org/2000/svg">
<path d="M192.593 1.68C196 1.68 198.815 4.4825 198.815 7.875V52.125C198.815 55.5175 196 58.32 192.593 58.32H7.40741C4 58.32 1.18519 55.5175 1.18519 52.125V7.875C1.18519 4.4825 4 1.68 7.40741 1.68H192.593ZM192.593 0.5H7.40741C3.25926 0.5 0 3.745 0 7.875V52.125C0 56.255 3.25926 59.5 7.40741 59.5H192.593C196.593 59.5 200 56.255 200 52.125V7.875C200 3.745 196.741 0.5 192.593 0.5Z" fill="#A6A6A6"/>
</svg>
