<svg width="30" height="36" viewBox="0 0 30 36" fill="none" xmlns="http://www.w3.org/2000/svg">
<path d="M24.4258 18.7751C24.3853 14.3573 28.0706 12.2074 28.2392 12.1069C26.1524 9.08683 22.917 8.67379 21.7806 8.64172C19.0633 8.35864 16.4289 10.2555 15.0442 10.2555C13.6326 10.2555 11.5006 8.66982 9.20481 8.7167C6.24944 8.76221 3.48343 10.4604 1.96665 13.0976C-1.1629 18.4752 1.17145 26.3783 4.16937 30.7251C5.6693 32.8536 7.42228 35.2312 9.71602 35.1469C11.9606 35.0545 12.7989 33.7264 15.5083 33.7264C18.1925 33.7264 18.979 35.1469 21.3193 35.0933C23.7278 35.0545 25.2453 32.9553 26.6926 30.8067C28.426 28.3663 29.122 25.9632 29.1497 25.8401C29.0937 25.8213 24.4716 24.0717 24.4258 18.7751Z" fill="white"/>
<path d="M20.0058 5.78304C21.2125 4.2843 22.0387 2.24613 21.8094 0.177124C20.0619 0.254028 17.8766 1.37592 16.6188 2.84245C15.5059 4.13364 14.5111 6.2509 14.768 8.24081C16.7307 8.38544 18.746 7.25819 20.0058 5.78304Z" fill="white"/>
</svg>
