<svg width="39" height="38" viewBox="0 0 39 38" fill="none" xmlns="http://www.w3.org/2000/svg">
<path d="M38.5 18.76C38.5 8.39913 30.1008 -1.2717e-05 19.74 -1.22641e-05C9.37912 -1.18112e-05 0.979979 8.39913 0.97998 18.76C0.97998 29.1209 9.37912 37.52 19.74 37.52C30.1008 37.52 38.5 29.1209 38.5 18.76Z" fill="white"/>
<path d="M24.49 18.08C24.42 18.01 24.32 17.97 24.24 17.91L17.24 10.91C16.72 10.39 15.89 10.39 15.37 10.91C14.85 11.43 14.85 12.26 15.37 12.78L21.62 19.04L15.39 25.27C14.86 25.8 14.86 26.66 15.39 27.19C15.92 27.72 16.78 27.72 17.31 27.19L24.5 20C25.03 19.47 25.03 18.61 24.5 18.08H24.49Z" fill="#3C2F23"/>
</svg>
