<svg width="50" height="50" viewBox="0 0 50 50" fill="none" xmlns="http://www.w3.org/2000/svg">
<rect width="50" height="50" fill="black" fill-opacity="0.7"/>
<path d="M23.1437 27.3413C23.754 27.9218 23.754 28.8745 23.1437 29.455C22.5632 30.0355 21.6105 30.0355 21.03 29.455C18.1274 26.5524 18.1274 21.8338 21.03 18.9312L26.2993 13.6619C29.2019 10.7593 33.9205 10.7593 36.8231 13.6619C39.7257 16.5645 39.7257 21.2831 36.8231 24.1857L34.6052 26.4035C34.6201 25.183 34.4266 23.9624 34.0098 22.8014L34.7094 22.0869C36.4658 20.3453 36.4658 17.5172 34.7094 15.7756C32.9678 14.0192 30.1397 14.0192 28.3981 15.7756L23.1437 21.03C21.3873 22.7716 21.3873 25.5997 23.1437 27.3413ZM27.3413 21.03C27.9218 20.4495 28.8745 20.4495 29.455 21.03C32.3576 23.9326 32.3576 28.6512 29.455 31.5538L24.1857 36.8231C21.2831 39.7257 16.5645 39.7257 13.6619 36.8231C10.7593 33.9205 10.7593 29.2019 13.6619 26.2993L15.8798 24.0815C15.8649 25.302 16.0584 26.5226 16.4752 27.6985L15.7756 28.3981C14.0192 30.1397 14.0192 32.9678 15.7756 34.7094C17.5172 36.4658 20.3453 36.4658 22.0869 34.7094L27.3413 29.455C29.0977 27.7134 29.0977 24.8853 27.3413 23.1437C26.731 22.5632 26.731 21.6105 27.3413 21.03Z" fill="white" fill-opacity="0.8"/>
</svg>
