<svg width="280" height="83" viewBox="0 0 280 83" fill="none" xmlns="http://www.w3.org/2000/svg">
<g clip-path="url(#clip0_89_5107)">
<path d="M277.588 72.9887C277.588 77.3932 274.022 80.9588 269.618 80.9588H9.75276C5.34826 80.9588 1.78271 77.3932 1.78271 72.9887V9.75276C1.78271 5.34826 5.34826 1.78271 9.75276 1.78271H269.618C274.022 1.78271 277.588 5.34826 277.588 9.75276V72.9887Z" fill="white"/>
<path d="M269.618 82.7416H9.7528C4.40448 82.7416 0 78.3371 0 72.9888V9.75281C0 4.4045 4.40448 0 9.7528 0H269.618C274.966 0 279.371 4.4045 279.371 9.75281V72.9888C279.371 78.3371 274.966 82.7416 269.618 82.7416Z" fill="black"/>
<path d="M277.588 72.9887C277.588 77.3932 274.022 80.9588 269.618 80.9588H9.75276C5.34826 80.9588 1.78271 77.3932 1.78271 72.9887V9.75276C1.78271 5.34826 5.34826 1.78271 9.75276 1.78271H269.618C274.022 1.78271 277.588 5.34826 277.588 9.75276V72.9887Z" fill="black"/>
<path d="M44.9888 14.5768C23.9101 14.5768 18.2472 20.2397 18.2472 41.3184C18.2472 62.397 23.9101 68.0599 44.9888 68.0599C66.0674 68.0599 71.7304 62.397 71.7304 41.3184C71.7304 20.2397 66.0674 14.5768 44.9888 14.5768Z" fill="url(#paint0_linear_89_5107)"/>
<g filter="url(#filter0_d_89_5107)">
<path d="M45.4083 25.9027L35.7603 31.4608C34.0824 32.4046 33.4532 34.6068 34.5019 36.2847C35.5506 37.9626 37.648 38.5919 39.3259 37.5432L47.5057 32.8241L43.6255 37.0188V53.2735C43.6255 55.266 45.1986 56.8391 47.1911 56.8391C49.1836 56.8391 50.7566 55.266 50.7566 53.2735V28.9439C50.7566 28.2098 50.5469 27.5806 50.2323 27.1611C49.1836 25.4832 47.0862 24.854 45.4083 25.9027Z" fill="white"/>
</g>
<mask id="mask0_89_5107" style="mask-type:luminance" maskUnits="userSpaceOnUse" x="18" y="14" width="54" height="55">
<path d="M44.9888 14.5768C23.9101 14.5768 18.2472 20.2397 18.2472 41.3184C18.2472 62.397 23.9101 68.0599 44.9888 68.0599C66.0674 68.0599 71.7304 62.397 71.7304 41.3184C71.7304 20.2397 66.0674 14.5768 44.9888 14.5768Z" fill="white"/>
</mask>
<g mask="url(#mask0_89_5107)">
<path d="M36.9139 68.06H71.7304V21.1836L36.9139 45.3034V68.06Z" fill="url(#paint1_linear_89_5107)"/>
<path d="M36.9139 68.06H18.2473V23.9102L36.9139 45.3034V68.06Z" fill="url(#paint2_linear_89_5107)"/>
</g>
<path d="M184.989 54.0075L182.052 53.2734C180.165 52.854 179.221 51.9101 179.221 50.5469C179.221 49.1836 180.689 47.9251 182.682 47.9251C184.674 47.9251 185.513 48.4495 186.667 49.3933C187.506 50.1274 188.24 50.1274 188.764 49.4982C189.393 48.7641 189.288 48.1349 188.554 47.4008C186.981 46.0375 185.094 45.3034 182.891 45.3034C180.689 45.3034 179.64 45.8278 178.382 46.7716C177.124 47.7154 176.494 48.9738 176.494 50.7566C176.494 53.4832 178.277 55.266 181.843 56.1049L184.674 56.7341C186.667 57.1536 187.61 58.0974 187.61 59.4607C187.61 60.824 186.037 62.2922 183.416 62.2922C180.794 62.2922 179.955 61.663 178.592 60.2997C177.963 59.6704 177.228 59.5656 176.599 60.2997C175.97 60.9289 176.075 61.5581 176.599 62.2922C178.277 64.0749 180.584 64.9139 183.416 64.9139C187.715 64.9139 190.442 62.6068 190.442 59.251C190.442 55.8952 188.659 54.8465 185.094 54.0075H184.989Z" fill="white"/>
<path d="M201.453 48.4494C202.397 48.4494 202.921 48.0299 202.921 47.191C202.921 46.352 202.397 45.9325 201.453 45.9325H198.202V42.7865C198.202 41.7378 197.783 41.2134 196.734 41.2134C195.685 41.2134 195.266 41.7378 195.266 42.7865V45.9325H193.273C192.33 45.9325 191.805 46.352 191.805 47.191C191.805 48.0299 192.33 48.4494 193.273 48.4494H195.266V58.7265C195.266 63.2359 197.049 64.5992 201.139 64.5992C205.228 64.5992 202.816 64.1797 202.816 63.3408C202.816 62.5018 202.292 62.0824 201.348 62.0824C198.727 62.0824 198.097 61.3483 198.097 58.6217V48.5543H201.348L201.453 48.4494Z" fill="white"/>
<path d="M214.562 45.3034C211.835 45.3034 209.633 46.2472 207.85 48.1349C206.067 50.0225 205.124 52.3296 205.124 55.0562C205.124 57.7828 205.962 60.0899 207.85 61.9776C209.633 63.8652 211.94 64.809 214.562 64.809C217.183 64.809 219.595 63.8652 221.378 61.9776C223.161 60.0899 224.105 57.7828 224.105 55.0562C224.105 52.3296 223.161 50.0225 221.378 48.1349C219.595 46.2472 217.288 45.3034 214.667 45.3034H214.562ZM219.281 60.2997C218.022 61.663 216.449 62.2922 214.562 62.2922C212.674 62.2922 211.101 61.5581 209.843 60.2997C208.584 58.9364 207.955 57.1536 207.955 55.1611C207.955 53.1686 208.584 51.3858 209.843 50.1274C211.101 48.7641 212.674 48.03 214.562 48.03C216.449 48.03 218.022 48.7641 219.281 50.1274C220.539 51.4907 221.168 53.1686 221.168 55.1611C221.168 57.1536 220.539 58.9364 219.281 60.2997Z" fill="white"/>
<path d="M238.052 45.6179H236.689C234.067 45.5131 231.97 46.352 230.607 48.1348V47.191C230.607 46.1423 230.187 45.6179 229.243 45.6179C228.3 45.6179 227.88 46.1423 227.88 47.191V63.1311C227.88 64.1797 228.3 64.7041 229.348 64.7041C230.397 64.7041 230.816 64.1797 230.816 63.1311V56.5243C230.816 50.5468 232.599 48.2397 236.899 48.2397C241.198 48.2397 237.528 48.2397 237.948 48.3445C238.996 48.4494 239.521 47.925 239.521 47.0861C239.521 46.2471 239.101 45.8277 238.262 45.7228L238.052 45.6179Z" fill="white"/>
<path d="M257.243 54.2173C257.243 50.0225 254.936 45.3034 249.168 45.3034C243.401 45.3034 244.449 46.2472 242.771 48.2397C241.094 50.2322 240.255 52.5394 240.255 55.266C240.255 57.9926 241.094 60.5094 242.771 62.2922C244.449 64.0749 246.756 65.0188 249.483 65.0188C252.21 65.0188 254.097 64.1798 255.88 62.397C256.614 61.663 256.614 61.0338 256.09 60.4045C255.461 59.7753 254.727 59.7753 253.992 60.4045C252.734 61.663 251.161 62.2922 249.483 62.2922C245.813 62.2922 243.401 59.9851 243.191 56H255.251C256.509 56 257.243 55.4757 257.243 54.2173ZM243.296 53.4832C243.715 50.2322 246.022 48.03 249.168 48.03C252.315 48.03 254.307 50.2322 254.307 53.4832H243.296Z" fill="white"/>
<path d="M100.569 38.0674C93.0187 38.0674 86.9363 44.1498 86.9363 51.7004C86.9363 59.251 93.0187 65.3333 100.569 65.3333C108.12 65.3333 114.202 59.251 114.202 51.7004C114.202 44.1498 108.12 38.0674 100.569 38.0674ZM100.569 59.1461C96.4794 59.1461 93.1236 55.7903 93.1236 51.7004C93.1236 47.6105 96.4794 44.2547 100.569 44.2547C104.659 44.2547 108.015 47.6105 108.015 51.7004C108.015 55.7903 104.659 59.1461 100.569 59.1461Z" fill="white"/>
<path d="M123.745 39.3258C123.116 38.5917 122.277 38.1722 121.333 38.1722C119.655 38.1722 118.292 39.5355 118.292 41.2134V62.1872C118.292 63.8651 119.655 65.2284 121.333 65.2284C123.011 65.2284 124.374 63.8651 124.374 62.1872V49.2884L138.112 63.97C138.742 64.7041 139.581 65.1236 140.524 65.1236C142.202 65.1236 143.566 63.7603 143.566 62.0824C143.566 60.4045 143.146 60.5093 142.727 59.985L123.745 39.2209V39.3258Z" fill="white"/>
<path d="M137.169 41.2135V48.8689C137.169 50.6517 138.532 52.015 140.315 52.015C142.097 52.015 143.461 50.6517 143.461 48.8689V41.2135C143.461 39.4307 142.097 38.0674 140.315 38.0674C138.532 38.0674 137.169 39.4307 137.169 41.2135Z" fill="white"/>
<path d="M165.483 44.2546C167.161 44.2546 168.524 42.8914 168.524 41.2134C168.524 39.5355 167.161 38.1722 165.483 38.1722H151.431C149.753 38.1722 148.389 39.5355 148.389 41.2134V62.1872C148.389 63.8651 149.753 65.2284 151.431 65.2284H165.483C167.161 65.2284 168.524 63.8651 168.524 62.1872C168.524 60.5093 167.161 59.146 165.483 59.146H154.472V54.7415H164.33C166.007 54.7415 167.371 53.3782 167.371 51.7003C167.371 50.0224 166.007 48.6591 164.33 48.6591H154.472V44.2546H165.483Z" fill="white"/>
<path d="M92.3895 18.8763V20.3444C92.3895 23.1759 93.4382 24.8538 95.1161 25.9025C95.5355 26.1122 95.5355 26.6366 95.3258 27.0561C95.0112 27.4755 94.5917 27.6853 94.0674 27.3707C93.0187 26.7415 91.8651 25.483 91.3408 24.1197C90.9213 25.5879 89.7678 26.9512 88.6142 27.5804C88.0899 27.895 87.6704 27.6853 87.4606 27.3707C87.146 26.9512 87.146 26.5317 87.5655 26.2171C89.4532 24.9587 90.2921 23.3856 90.2921 20.4493V18.8763C90.2921 18.4568 90.7116 18.1422 91.2359 18.1422C91.7603 18.1422 92.2846 18.3519 92.2846 18.8763H92.3895ZM98.2621 18.3519V22.4418H99.8352C100.255 22.4418 100.464 22.7564 100.464 23.2808C100.464 23.8051 100.255 24.1197 99.8352 24.1197H98.2621V30.6216C98.2621 31.1459 97.8427 31.3557 97.3183 31.3557C96.794 31.3557 96.3745 31.1459 96.3745 30.6216V18.4568C96.3745 18.0373 96.794 17.7227 97.3183 17.7227C97.8427 17.7227 98.2621 18.0373 98.2621 18.4568V18.3519Z" fill="white"/>
<path d="M107.176 20.2396V20.5543C107.176 22.6516 108.434 23.7003 109.903 24.3295C110.322 24.5393 110.427 24.9587 110.217 25.3782C110.007 25.7977 109.693 26.0074 109.064 25.9026C108.015 25.588 106.756 24.6441 106.232 23.4906C105.813 24.749 104.659 25.5879 103.401 26.1123C102.876 26.322 102.457 26.1123 102.247 25.6928C102.037 25.2733 102.037 24.8539 102.562 24.6441C104.135 23.9101 105.183 22.8614 105.183 20.764V20.4494H102.876C102.457 20.4494 102.247 20.0299 102.247 19.6104C102.247 19.1909 102.457 18.8763 102.876 18.8763H109.273C109.693 18.8763 109.903 19.2958 109.903 19.6104C109.903 19.925 109.693 20.4494 109.273 20.4494H107.071L107.176 20.2396ZM104.554 27.161C104.554 26.7415 104.974 26.4269 105.498 26.4269C106.022 26.4269 106.442 26.6366 106.442 27.161V29.4681C106.442 29.7827 106.442 29.7827 106.756 29.7827H113.258C113.678 29.7827 113.888 30.0973 113.888 30.5168C113.888 30.9363 113.678 31.3557 113.258 31.3557H105.918C104.869 31.3557 104.345 31.146 104.345 30.0973V27.161H104.554ZM111.685 18.352C111.685 17.9325 112.105 17.6179 112.629 17.6179C113.153 17.6179 113.573 17.8277 113.573 18.352V27.0561C113.573 27.5805 113.153 27.7902 112.629 27.7902C112.105 27.7902 111.685 27.5805 111.685 27.0561V22.8614H109.798C109.378 22.8614 109.168 22.5468 109.168 22.0224C109.168 21.4981 109.378 21.1835 109.798 21.1835H111.685V18.352Z" fill="white"/>
<path d="M123.85 18.5617C123.85 18.1422 124.27 17.9325 124.689 17.9325C125.109 17.9325 125.528 18.1422 125.528 18.5617V30.307C125.528 30.8313 125.213 31.0411 124.689 31.0411C124.165 31.0411 123.85 30.8313 123.85 30.307V26.0074H122.382C121.963 27.2658 121.124 27.9999 119.655 27.9999C117.243 27.9999 116.614 25.7976 116.614 23.2808C116.614 20.7639 117.348 18.5617 119.655 18.5617C121.963 18.5617 121.858 19.4006 122.277 20.5542H123.745V18.5617H123.85ZM119.655 20.2396C118.607 20.2396 118.397 21.6029 118.397 23.3856C118.397 25.1684 118.712 26.5317 119.655 26.5317C120.599 26.5317 120.914 25.1684 120.914 23.3856C120.914 21.6029 120.599 20.2396 119.655 20.2396ZM122.697 24.4343H123.85V22.2321H122.697C122.697 22.6516 122.697 22.9662 122.697 23.3856C122.697 23.8051 122.697 24.1197 122.697 24.5392V24.4343ZM126.682 18.3519C126.682 17.9325 127.101 17.7227 127.625 17.7227C128.15 17.7227 128.569 17.9325 128.569 18.3519V30.6216C128.569 31.1459 128.15 31.3557 127.625 31.3557C127.101 31.3557 126.682 31.1459 126.682 30.6216V18.3519Z" fill="white"/>
<path d="M134.861 18.2471C137.064 18.2471 138.532 19.6104 138.532 21.4981C138.532 23.3857 137.064 24.749 134.861 24.749C132.659 24.749 131.191 23.3857 131.191 21.4981C131.191 19.6104 132.659 18.2471 134.861 18.2471ZM133.393 26.3221H140.524C141.573 26.3221 141.888 26.5318 141.888 27.5805V31.0412C141.888 31.4606 141.468 31.6704 140.944 31.6704C140.419 31.6704 140 31.4606 140 31.0412V28.2097C140 27.8951 140 27.8951 139.685 27.8951H133.498C133.079 27.8951 132.869 27.5805 132.869 27.161C132.869 26.7415 133.079 26.4269 133.498 26.4269L133.393 26.3221ZM134.861 23.3857C136.015 23.3857 136.749 22.6516 136.749 21.603C136.749 20.5543 136.015 19.8202 134.861 19.8202C133.708 19.8202 132.974 20.5543 132.974 21.603C132.974 22.6516 133.708 23.3857 134.861 23.3857ZM141.888 18.352V19.5056H143.356C143.775 19.5056 143.985 19.8202 143.985 20.2397C143.985 20.6591 143.775 20.9737 143.356 20.9737H141.888V22.2322H143.356C143.775 22.2322 143.985 22.5468 143.985 22.9662C143.985 23.3857 143.775 23.8052 143.356 23.8052H141.888V24.9588C141.888 25.4831 141.468 25.6928 140.944 25.6928C140.419 25.6928 140 25.4831 140 24.9588V18.2471C140 17.8277 140.419 17.5131 140.944 17.5131C141.468 17.5131 141.888 17.7228 141.888 18.2471V18.352Z" fill="white"/>
<path d="M146.082 22.337C145.663 22.337 145.453 21.9175 145.453 21.4981C145.453 21.0786 145.663 20.6591 146.082 20.6591H153.213C153.633 20.6591 153.843 21.0786 153.843 21.4981C153.843 21.9175 153.633 22.337 153.213 22.337H146.082ZM149.753 22.9662C151.64 22.9662 153.109 24.0149 153.109 25.7977C153.109 27.5805 151.745 28.6292 149.753 28.6292C147.76 28.6292 146.397 27.4756 146.397 25.7977C146.397 24.1198 147.76 22.9662 149.753 22.9662ZM148.075 19.8202C147.655 19.8202 147.446 19.4007 147.446 18.9812C147.446 18.5617 147.655 18.1423 148.075 18.1423H151.326C151.745 18.1423 151.955 18.5617 151.955 18.9812C151.955 19.4007 151.745 19.8202 151.326 19.8202H148.075ZM149.753 27.2659C150.592 27.2659 151.326 26.7415 151.326 25.7977C151.326 24.8539 150.592 24.3295 149.753 24.3295C148.914 24.3295 148.18 24.8539 148.18 25.7977C148.18 26.7415 148.914 27.2659 149.753 27.2659ZM154.577 18.352C154.577 17.9325 154.996 17.6179 155.521 17.6179C156.045 17.6179 156.464 17.9325 156.464 18.352V22.9662H158.037C158.457 22.9662 158.667 23.2808 158.667 23.8052C158.667 24.3295 158.457 24.6441 158.037 24.6441H156.464V30.6217C156.464 31.146 156.045 31.3557 155.521 31.3557C154.996 31.3557 154.577 31.146 154.577 30.6217V18.4569V18.352Z" fill="white"/>
<path d="M166.008 18.7715C167.056 18.7715 167.581 18.8764 167.581 20.0299C167.581 23.9101 165.588 26.5318 162.023 27.9999C161.813 27.9999 161.708 27.9999 161.603 27.9999C161.184 27.9999 160.764 27.6853 160.764 27.0561C160.764 26.4269 160.869 26.5318 161.079 26.4269C163.805 25.2733 165.588 23.3857 165.588 20.6591C165.588 17.9325 165.588 20.3445 165.169 20.3445H161.498C161.079 20.3445 160.869 20.0299 160.869 19.5056C160.869 18.9812 161.184 18.6666 161.498 18.6666H165.903L166.008 18.7715ZM169.783 18.352C169.783 17.9325 170.202 17.6179 170.727 17.6179C171.251 17.6179 171.67 17.8277 171.67 18.352V30.5168C171.67 31.0411 171.251 31.2509 170.727 31.2509C170.202 31.2509 169.783 31.0411 169.783 30.5168V18.352Z" fill="white"/>
</g>
<defs>
<filter id="filter0_d_89_5107" x="31.2626" y="22.6634" width="23.8985" height="38.5801" filterUnits="userSpaceOnUse" color-interpolation-filters="sRGB">
<feFlood flood-opacity="0" result="BackgroundImageFix"/>
<feColorMatrix in="SourceAlpha" type="matrix" values="0 0 0 0 0 0 0 0 0 0 0 0 0 0 0 0 0 0 127 0" result="hardAlpha"/>
<feOffset dx="0.838951" dy="0.838951"/>
<feGaussianBlur stdDeviation="1.78277"/>
<feColorMatrix type="matrix" values="0 0 0 0 0.839216 0 0 0 0 0.113725 0 0 0 0 0.356863 0 0 0 0.3 0"/>
<feBlend mode="normal" in2="BackgroundImageFix" result="effect1_dropShadow_89_5107"/>
<feBlend mode="normal" in="SourceGraphic" in2="effect1_dropShadow_89_5107" result="shape"/>
</filter>
<linearGradient id="paint0_linear_89_5107" x1="14.2622" y1="10.382" x2="66.6967" y2="63.236" gradientUnits="userSpaceOnUse">
<stop stop-color="#F3742E"/>
<stop offset="1" stop-color="#ED0A72"/>
</linearGradient>
<linearGradient id="paint1_linear_89_5107" x1="31.251" y1="24.7491" x2="57.9925" y2="47.8203" gradientUnits="userSpaceOnUse">
<stop stop-color="white" stop-opacity="0.5"/>
<stop offset="1" stop-color="white" stop-opacity="0"/>
</linearGradient>
<linearGradient id="paint2_linear_89_5107" x1="53.9027" y1="11.7454" x2="27.1611" y2="46.457" gradientUnits="userSpaceOnUse">
<stop stop-color="white" stop-opacity="0.5"/>
<stop offset="1" stop-color="white" stop-opacity="0"/>
</linearGradient>
<clipPath id="clip0_89_5107">
<rect width="280" height="82.8464" fill="white"/>
</clipPath>
</defs>
</svg>
