<svg width="50" height="50" viewBox="0 0 50 50" fill="none" xmlns="http://www.w3.org/2000/svg">
<g clip-path="url(#clip0_123_3704)">
<path d="M18.5537 23.426H21.4079L19.9808 19.3711L18.5537 23.426Z" fill="white" fill-opacity="0.8"/>
<path d="M25.2223 2.10529C11.5374 2.10529 0.44458 10.8513 0.44458 21.6416C0.44458 28.6174 5.08325 34.7452 12.0591 38.195C11.6803 39.503 9.61948 46.6146 9.53848 47.1745C9.53848 47.1745 9.48844 47.5938 9.76005 47.7535C9.85092 47.7993 9.95019 47.8261 10.0518 47.8322C10.1534 47.8384 10.2552 47.8237 10.3509 47.7892C11.1324 47.6796 19.4043 41.8783 20.8338 40.88C22.2878 41.0819 23.7543 41.1815 25.2223 41.1778C38.9072 41.1778 50 32.4318 50 21.6416C50 10.8513 38.9072 2.10529 25.2223 2.10529ZM12.9597 18.6087C12.9287 21.3723 12.9835 24.279 12.9383 26.9997C12.924 27.8693 12.4236 28.129 11.747 28.3768C11.6706 28.4038 11.5882 28.4096 11.5088 28.3935C10.7345 28.241 10.1174 27.9646 10.0984 27.0021C10.0436 24.2837 10.115 21.3723 10.0769 18.6087C9.42174 18.5825 8.48781 18.6349 7.88028 18.6087C7.03688 18.5539 6.45079 18.0178 6.48653 17.2197C6.52227 16.4216 6.94873 15.8474 7.89457 15.8331C10.1293 15.7997 12.8978 15.7997 15.1325 15.8331C16.0855 15.8474 16.5096 16.4239 16.5382 17.2197C16.5668 18.0154 15.9902 18.5539 15.1492 18.6087C14.5488 18.6349 13.6173 18.5825 12.9597 18.6087ZM24.9674 28.2458C24.6816 28.3758 24.3713 28.4433 24.0573 28.4435C23.4616 28.4435 23.0066 28.2053 22.866 27.8122L22.1513 25.9586H17.8009L17.0861 27.8122C16.948 28.2005 16.4929 28.4435 15.8949 28.4435C15.5817 28.4435 15.2721 28.3761 14.9872 28.2458C14.5917 28.0647 14.2129 27.5644 14.6465 26.2159L18.0749 17.2149C18.2187 16.8184 18.4762 16.4732 18.8152 16.2223C19.1542 15.9714 19.5597 15.8261 19.9809 15.8045C20.4017 15.8284 20.8064 15.9749 21.1451 16.2259C21.4837 16.477 21.7416 16.8216 21.8868 17.2173L25.3033 26.2135C25.7393 27.5644 25.3605 28.0742 24.9674 28.2458ZM32.191 28.2458H27.6048C27.2496 28.2528 26.9061 28.1189 26.6493 27.8733C26.3926 27.6278 26.2436 27.2906 26.2348 26.9354V17.234C26.2501 16.8572 26.4105 16.5008 26.6825 16.2396C26.9545 15.9784 27.317 15.8325 27.6941 15.8325C28.0712 15.8325 28.4337 15.9784 28.7057 16.2396C28.9777 16.5008 29.1381 16.8572 29.1534 17.234V25.6322H32.191C32.3697 25.6214 32.5488 25.6473 32.7171 25.7083C32.8855 25.7693 33.0396 25.864 33.1699 25.9868C33.3003 26.1095 33.4042 26.2576 33.4752 26.422C33.5462 26.5864 33.5828 26.7635 33.5828 26.9426C33.5828 27.1216 33.5462 27.2988 33.4752 27.4631C33.4042 27.6275 33.3003 27.7756 33.1699 27.8983C33.0396 28.0211 32.8855 28.1159 32.7171 28.1768C32.5488 28.2378 32.3697 28.2637 32.191 28.2529V28.2458ZM43.3886 27.1689C43.3514 27.4509 43.231 27.7154 43.0426 27.9285C42.8543 28.1416 42.6067 28.2937 42.3314 28.3654C42.0562 28.437 41.7658 28.4249 41.4975 28.3306C41.2291 28.2363 40.995 28.0641 40.8251 27.836L37.473 23.3974L36.9774 23.893V27.0116C36.9774 27.3908 36.8268 27.7544 36.5587 28.0224C36.2906 28.2905 35.927 28.4411 35.5479 28.4411C35.1688 28.4411 34.8052 28.2905 34.5371 28.0224C34.269 27.7544 34.1184 27.3908 34.1184 27.0116V17.2435C34.1184 16.8644 34.269 16.5008 34.5371 16.2327C34.8052 15.9646 35.1688 15.814 35.5479 15.814C35.927 15.814 36.2906 15.9646 36.5587 16.2327C36.8268 16.5008 36.9774 16.8644 36.9774 17.2435V20.3074L40.9657 16.3191C41.0701 16.2159 41.194 16.1345 41.3302 16.0797C41.4664 16.0249 41.6122 15.9977 41.759 15.9999C42.116 16.0092 42.4569 16.1501 42.7163 16.3955C42.9758 16.6409 43.1354 16.9734 43.1647 17.3293C43.1775 17.4881 43.1563 17.6478 43.1025 17.7978C43.0487 17.9477 42.9635 18.0845 42.8526 18.1989L39.5886 21.4557L43.1075 26.1182C43.3353 26.4206 43.4339 26.8011 43.3815 27.176L43.3886 27.1689Z" fill="white" fill-opacity="0.8"/>
</g>
<defs>
<clipPath id="clip0_123_3704">
<rect width="50" height="50" fill="white"/>
</clipPath>
</defs>
</svg>
