<svg width="280" height="82" viewBox="0 0 280 82" fill="none" xmlns="http://www.w3.org/2000/svg">
<g clip-path="url(#clip0_4_113)">
<path d="M269.63 0H10.3704C4.64297 0 0 4.57891 0 10.2273V71.5909C0 77.2393 4.64297 81.8182 10.3704 81.8182H269.63C275.357 81.8182 280 77.2393 280 71.5909V10.2273C280 4.57891 275.357 0 269.63 0Z" fill="black"/>
<path d="M269.63 1.63636C274.4 1.63636 278.341 5.52273 278.341 10.2273V71.5909C278.341 76.2955 274.4 80.1818 269.63 80.1818H10.3704C5.6 80.1818 1.65926 76.2955 1.65926 71.5909V10.2273C1.65926 5.52273 5.6 1.63636 10.3704 1.63636H269.63ZM269.63 0H10.3704C4.56296 0 0 4.5 0 10.2273V71.5909C0 77.3182 4.56296 81.8182 10.3704 81.8182H269.63C275.23 81.8182 280 77.3182 280 71.5909V10.2273C280 4.5 275.437 0 269.63 0Z" fill="#A6A6A6"/>
<path d="M141.245 44.5909C136.267 44.5909 132.326 48.2727 132.326 53.3863C132.326 58.5 136.267 62.1818 141.245 62.1818C146.222 62.1818 150.163 58.5 150.163 53.3863C150.163 48.2727 146.222 44.5909 141.245 44.5909ZM141.245 58.5C138.548 58.5 136.267 56.25 136.267 53.1818C136.267 50.1136 138.548 47.8636 141.245 47.8636C143.941 47.8636 146.222 49.9091 146.222 53.1818C146.222 56.4545 143.941 58.5 141.245 58.5ZM121.956 44.5909C116.978 44.5909 113.037 48.2727 113.037 53.3863C113.037 58.5 116.978 62.1818 121.956 62.1818C126.934 62.1818 130.874 58.5 130.874 53.3863C130.874 48.2727 126.934 44.5909 121.956 44.5909ZM121.956 58.5C119.259 58.5 116.978 56.25 116.978 53.1818C116.978 50.1136 119.259 47.8636 121.956 47.8636C124.652 47.8636 126.934 49.9091 126.934 53.1818C126.934 56.4545 124.652 58.5 121.956 58.5ZM98.9335 47.25V50.9318H107.852C107.645 52.9772 106.815 54.6136 105.778 55.6363C104.741 56.6591 102.459 58.2954 98.9335 58.2954C93.3335 58.2954 89.1854 54 89.1854 48.4772C89.1854 42.9545 93.5409 38.6591 98.9335 38.6591C104.326 38.6591 104.119 39.8863 105.778 41.3181L108.474 38.6591C106.193 36.6136 103.289 34.9772 99.1409 34.9772C91.6743 34.9772 85.2446 41.1136 85.2446 48.4772C85.2446 55.8409 91.6743 61.9772 99.1409 61.9772C106.608 61.9772 106.193 60.75 108.682 58.0909C111.171 55.6363 112 52.1591 112 49.5C112 46.8409 112 47.8636 112 47.25H99.3483H98.9335ZM193.097 50.1136C192.267 48.0681 190.193 44.5909 185.63 44.5909C181.067 44.5909 177.334 48.0681 177.334 53.3863C177.334 58.7045 181.067 62.1818 186.045 62.1818C191.022 62.1818 192.474 59.7272 193.304 58.2954L190.4 56.25C189.363 57.6818 188.119 58.7045 186.045 58.7045C183.971 58.7045 182.726 57.8863 181.689 56.0454L193.511 51.1363L193.097 50.1136ZM181.067 52.9772C181.067 49.7045 183.763 47.8636 185.63 47.8636C187.497 47.8636 188.534 48.6818 188.948 49.7045L181.067 52.9772ZM171.319 61.3636H175.259V35.7954H171.319V61.3636ZM165.096 46.4318C164.267 45.4091 162.608 44.3863 160.534 44.3863C156.178 44.3863 152.03 48.2727 152.03 53.1818C152.03 58.0909 155.971 61.7727 160.534 61.7727C165.097 61.7727 164.267 60.75 165.096 59.7272V60.9545C165.096 64.2272 163.23 66.0682 160.326 66.0682C157.422 66.0682 156.385 64.4318 155.971 63L152.652 64.4318C153.689 66.6818 156.178 69.5454 160.534 69.5454C164.889 69.5454 168.83 66.8863 168.83 60.5454V45H165.096V46.4318ZM160.534 58.5C157.837 58.5 155.556 56.25 155.556 53.1818C155.556 50.1136 157.837 47.8636 160.534 47.8636C163.23 47.8636 165.304 50.1136 165.304 53.1818C165.304 56.25 163.23 58.5 160.534 58.5ZM211.141 35.7954H201.808V61.3636H205.748V51.75H211.141C215.497 51.75 219.645 48.6818 219.645 43.7727C219.645 38.8636 215.497 35.7954 211.141 35.7954ZM211.348 48.0681H205.748V39.2727H211.348C214.252 39.2727 215.911 41.7272 215.911 43.5681C215.911 45.4091 214.252 47.8636 211.348 47.8636V48.0681ZM235.2 44.3863C232.297 44.3863 229.393 45.6136 228.356 48.2727L231.882 49.7045C232.711 48.2727 233.956 47.8636 235.408 47.8636C236.859 47.8636 239.348 49.0909 239.556 51.1363C238.934 51.1363 237.274 50.3181 235.615 50.3181C231.882 50.3181 228.148 52.3636 228.148 56.0454C228.148 59.7272 231.259 61.7727 234.578 61.7727C237.897 61.7727 238.519 60.5454 239.556 59.3181V61.3636H243.289V51.5454C243.289 47.0454 239.763 44.3863 235.408 44.3863H235.2ZM234.785 58.5C233.541 58.5 231.674 57.8863 231.674 56.25C231.674 54.6136 233.956 53.5909 235.822 53.5909C237.689 53.5909 238.311 54 239.348 54.4091C239.141 56.8636 237.067 58.5 234.785 58.5ZM256.563 45L252.208 56.0454L247.645 45H243.497L250.341 60.5454L246.4 69.1363H250.341L260.919 45H256.563ZM221.719 61.3636H225.659V35.7954H221.719V61.3636Z" fill="white"/>
<path d="M42.9333 39.6817L20.9481 62.7954C21.5703 65.2499 23.8518 67.0908 26.7555 67.0908C29.6592 67.0908 28.8296 66.8863 29.8666 66.2726L54.7555 52.159L43.1407 39.6817H42.9333Z" fill="#EA4335"/>
<path d="M65.3333 35.7954L54.5481 29.659L42.5185 40.2954L54.5481 52.159L65.1259 46.0226C66.9926 44.9999 68.237 43.159 68.237 40.909C68.237 38.659 66.9926 36.8181 65.1259 35.7954H65.3333Z" fill="#FBBC04"/>
<path d="M20.9481 19.0226C20.9481 19.4317 20.9481 20.0454 20.9481 20.4544V61.3635C20.9481 61.9772 20.9481 62.3863 20.9481 62.7954L43.7629 40.2954L20.9481 19.0226Z" fill="#4285F4"/>
<path d="M43.1407 40.909L54.5481 29.659L29.6592 15.5454C28.8296 14.9317 27.7926 14.7272 26.5481 14.7272C23.8518 14.7272 21.3629 16.5681 20.7407 19.0226L42.9333 40.909H43.1407Z" fill="#34A853"/>
<path d="M89.8588 16.3753C89.8588 17.6956 89.6586 18.9721 89.2581 20.2047C88.8577 21.4374 88.2882 22.5324 87.5561 23.4835C86.824 24.4346 85.9731 25.1667 85.0157 25.6611L83.8706 24.1781C84.7466 23.7589 85.5225 23.1331 86.1983 22.3134C86.8803 21.4937 87.406 20.5614 87.7814 19.5227C88.1568 18.484 88.3508 17.4328 88.3571 16.369V13.3906H89.8588V16.369V16.3753ZM90.1904 16.3753C90.1904 17.4015 90.3656 18.4089 90.7348 19.3975C91.104 20.3862 91.6171 21.2747 92.2866 22.0569C92.9499 22.839 93.707 23.4397 94.5517 23.859L93.4192 25.3357C92.4806 24.8539 91.6546 24.1468 90.9351 23.227C90.2155 22.3072 89.6648 21.2497 89.2769 20.0671C88.8889 18.8845 88.7012 17.6518 88.7012 16.3753V13.3968H90.1842V16.3753H90.1904ZM97.7117 11.9514V29.3403H95.8658V11.9514H97.7117ZM100.496 18.8907V20.4613H97.2987V18.8907H100.496Z" fill="white"/>
<path d="M107.217 15.4868C107.217 16.5506 107.01 17.558 106.616 18.4966C106.222 19.4414 105.652 20.2611 104.92 20.9682C104.182 21.6753 103.312 22.2071 102.311 22.5701L101.36 21.0683C102.236 20.768 103.005 20.3362 103.662 19.7668C104.319 19.1974 104.82 18.5404 105.177 17.7958C105.527 17.0574 105.702 16.2815 105.702 15.4806V14.154H107.217V15.4806V15.4868ZM111.315 13.2968V14.7985H101.929V13.2968H111.315ZM106.391 23.5712V28.2767H104.551V23.5712H106.391ZM116.302 27.4758V28.9838H104.551V27.4758H116.302ZM107.567 15.4868C107.567 16.2127 107.736 16.926 108.074 17.6143C108.412 18.3026 108.894 18.9221 109.532 19.4665C110.164 20.0108 110.908 20.4238 111.766 20.7117L110.827 22.1821C109.851 21.8442 109.006 21.3374 108.293 20.6679C107.58 19.9983 107.029 19.2162 106.647 18.3214C106.265 17.4329 106.072 16.488 106.072 15.4931V14.1666H107.573V15.4931L107.567 15.4868ZM115.013 16.6757V18.1775H110.671V16.6757H115.013ZM115.839 11.964V24.6975H113.999V11.964H115.839Z" fill="white"/>
<path d="M134.404 20.117V21.6375H118.53V20.117H134.404ZM126.439 23.0016C127.684 23.0016 128.754 23.1268 129.655 23.3708C130.556 23.6148 131.244 23.9715 131.726 24.4471C132.202 24.9226 132.446 25.492 132.452 26.1615C132.452 26.8311 132.208 27.4067 131.726 27.876C131.251 28.3453 130.562 28.7083 129.661 28.9523C128.76 29.1963 127.69 29.3215 126.439 29.3215C125.187 29.3215 124.105 29.1963 123.204 28.9523C122.303 28.7083 121.608 28.3516 121.126 27.876C120.645 27.4005 120.401 26.8311 120.401 26.1615C120.401 25.492 120.645 24.9226 121.126 24.4471C121.608 23.9715 122.303 23.6148 123.204 23.3708C124.105 23.1268 125.181 23.0016 126.433 23.0016H126.439ZM132.446 12.577V14.0788H122.328V17.8519H120.501V12.577H132.44H132.446ZM132.552 17.1198V18.609H120.507V17.1198H132.552ZM126.439 24.422C125.557 24.422 124.806 24.4971 124.18 24.6348C123.561 24.7724 123.085 24.9727 122.76 25.2292C122.434 25.4858 122.272 25.7986 122.278 26.1615C122.278 26.5307 122.434 26.8436 122.76 27.1064C123.085 27.3629 123.554 27.5569 124.174 27.6883C124.793 27.8197 125.544 27.8823 126.433 27.8823C127.321 27.8823 128.06 27.8197 128.679 27.6883C129.298 27.5569 129.774 27.3629 130.106 27.1064C130.437 26.8498 130.6 26.5307 130.606 26.1615C130.606 25.7986 130.437 25.492 130.106 25.2292C129.774 24.9727 129.298 24.7724 128.679 24.6348C128.06 24.4971 127.309 24.4283 126.433 24.422H126.439Z" fill="white"/>
<path d="M151.599 21.4436V22.9454H135.687V21.4436H151.599ZM149.691 24.153V29.2026H147.839V25.636H137.47V24.153H149.691ZM149.597 12.3581V16.7382H139.56V18.9407H137.733V15.3741H147.757V13.8223H137.683V12.3581H149.597ZM149.954 18.3463V19.7917H137.733V18.3463H149.954ZM144.554 19.0596V22.207H142.739V19.0596H144.554Z" fill="white"/>
<path d="M163.1 14.6734V16.1751H152.801V14.6734H163.1ZM158.026 17.4641C158.845 17.4641 159.584 17.6393 160.234 17.9835C160.885 18.3276 161.404 18.8094 161.78 19.4226C162.155 20.0358 162.343 20.7304 162.343 21.5126C162.343 22.2947 162.155 22.9955 161.78 23.6087C161.404 24.222 160.891 24.6975 160.234 25.0417C159.577 25.3858 158.845 25.5547 158.026 25.5547C157.206 25.5547 156.455 25.3858 155.798 25.0417C155.141 24.6975 154.622 24.222 154.252 23.6025C153.883 22.983 153.696 22.2885 153.696 21.5126C153.696 20.7367 153.883 20.0358 154.252 19.4226C154.622 18.8094 155.135 18.3276 155.798 17.9835C156.455 17.6393 157.2 17.4641 158.026 17.4641ZM158.026 18.9846C157.531 18.9846 157.093 19.091 156.699 19.3038C156.311 19.5165 156.004 19.8168 155.785 20.1985C155.566 20.5802 155.454 21.0182 155.46 21.5063C155.46 21.9944 155.566 22.4324 155.785 22.8141C156.004 23.1958 156.311 23.4899 156.699 23.6963C157.087 23.9028 157.531 24.0092 158.026 24.0092C158.52 24.0092 158.952 23.9028 159.333 23.6963C159.715 23.4899 160.022 23.1958 160.241 22.8141C160.46 22.4324 160.578 21.9944 160.578 21.5063C160.578 21.0182 160.46 20.5802 160.241 20.1985C160.022 19.8168 159.715 19.5165 159.327 19.3038C158.939 19.091 158.507 18.9846 158.019 18.9846H158.026ZM158.927 12.1767V15.3116H157.087V12.1767H158.927ZM166.442 11.9515V29.3404H164.614V11.9515H166.442ZM169.232 18.9971V20.5302H166.035V18.9971H169.232Z" fill="white"/>
<path d="M179.363 13.8224C179.363 15.5869 179.081 17.2263 178.537 18.7343C177.992 20.2423 177.123 21.6252 175.921 22.8892C174.72 24.1531 173.156 25.2482 171.216 26.168L170.24 24.6787C171.91 23.8903 173.281 22.9705 174.363 21.9193C175.446 20.8681 176.24 19.698 176.754 18.4027C177.273 17.1075 177.529 15.6808 177.536 14.1165V13.8224H179.363ZM178.343 13.8224V15.2929H171.091V13.8224H178.343ZM184.531 11.9515V29.3404H182.679V11.9515H184.531Z" fill="white"/>
</g>
<defs>
<clipPath id="clip0_4_113">
<rect width="280" height="81.8182" fill="white"/>
</clipPath>
</defs>
</svg>
