<svg width="280" height="82" viewBox="0 0 280 82" fill="none" xmlns="http://www.w3.org/2000/svg">
<g clip-path="url(#clip0_4_130)">
<path d="M269.63 0H10.3704C4.64297 0 0 4.57891 0 10.2273V71.5909C0 77.2393 4.64297 81.8182 10.3704 81.8182H269.63C275.357 81.8182 280 77.2393 280 71.5909V10.2273C280 4.57891 275.357 0 269.63 0Z" fill="black"/>
<path d="M269.63 1.63636C274.4 1.63636 278.341 5.52273 278.341 10.2273V71.5909C278.341 76.2955 274.4 80.1818 269.63 80.1818H10.3704C5.6 80.1818 1.65926 76.2955 1.65926 71.5909V10.2273C1.65926 5.52273 5.6 1.63636 10.3704 1.63636H269.63ZM269.63 0H10.3704C4.56296 0 0 4.5 0 10.2273V71.5909C0 77.3182 4.56296 81.8182 10.3704 81.8182H269.63C275.23 81.8182 280 77.3182 280 71.5909V10.2273C280 4.5 275.437 0 269.63 0Z" fill="#A6A6A6"/>
<path d="M60.7961 38.4759C60.7394 32.2439 65.8988 29.2111 66.1349 29.0694C63.2133 24.809 58.6838 24.2264 57.0929 24.1811C53.2886 23.7818 49.6004 26.4576 47.6618 26.4576C45.6857 26.4576 42.7009 24.2208 39.4867 24.2869C35.3492 24.3511 31.4768 26.7467 29.3533 30.4669C24.9719 38.0528 28.24 49.2014 32.4371 55.3333C34.537 58.3359 36.9912 61.6898 40.2024 61.5709C43.3448 61.4406 44.5184 59.5671 48.3116 59.5671C52.0695 59.5671 53.1706 61.5709 56.447 61.4953C59.8189 61.4406 61.9434 58.4794 63.9696 55.4483C66.3963 52.0058 67.3708 48.6159 67.4096 48.4422C67.3311 48.4157 60.8603 45.9477 60.7961 38.4759Z" fill="white"/>
<path d="M54.6082 20.1485C56.2976 18.0343 57.4542 15.1591 57.1332 12.2405C54.6867 12.349 51.6273 13.9316 49.8664 16.0003C48.3083 17.8218 46.9156 20.8085 47.2753 23.6156C50.023 23.8196 52.8444 22.2295 54.6082 20.1485Z" fill="white"/>
<path d="M84.1438 52.9434C84.1438 56.0939 85.6145 58.376 87.9726 59.6564L86.8442 61.1081C85.4496 60.3157 83.643 58.5471 83.1676 56.9433C82.7683 58.6422 80.9997 60.6453 79.4466 61.5201L78.2612 60.1065C80.8475 58.5851 82.1534 56.1319 82.1534 53.0258V50.7438H84.1438V52.9498V52.9434ZM90.73 55.3586H92.9804V56.937H90.73V64.9368H88.8347V49.4253H90.73V55.3586Z" fill="white"/>
<path d="M95.3638 58.9464L94.3876 57.4504C96.6507 56.6136 98.115 54.8894 98.115 52.525V52.1953H95.0152V50.6296H103.154V52.1953H100.118V52.4426C100.118 54.8387 101.735 56.4298 103.693 57.1208L102.66 58.6168C101.31 58.135 99.6807 56.7214 99.1292 55.4156C98.7362 56.8165 96.9929 58.3569 95.3575 58.9401L95.3638 58.9464ZM107.516 62.978V64.4993H96.8218V59.6373H98.7552V62.9716H107.516V62.978ZM102.787 53.6153H105.284V49.4125H107.237V60.6896H105.284V55.1493H102.787V53.6153Z" fill="white"/>
<path d="M128.942 58.0462V59.5929H122.843V64.9557H120.929V59.5929H114.92V58.0462H128.942ZM120.815 51.7072H116.194V50.1859H127.636V51.7072H123.015C123.103 53.685 125.702 55.0415 128.282 55.3204L127.509 56.8418C125.328 56.5376 122.767 55.4219 121.918 53.7484C121.062 55.3965 118.52 56.5566 116.34 56.8482L115.585 55.3331C118.21 55.0606 120.726 53.6913 120.821 51.7072H120.815Z" fill="white"/>
<path d="M144.707 57.1335V58.6422H138.716V61.5708H136.783V58.6422H130.685V57.1335H144.707ZM134.412 62.9844H143.052V64.5184H132.504V60.0811H134.412V62.9907V62.9844ZM142.881 55.7833H132.542V50.2493H142.881V55.7833ZM140.941 51.7707H134.488V54.2556H140.941V51.7707Z" fill="white"/>
<path d="M155.388 54.6803H146.342V53.1589H155.388V54.6803ZM150.944 61.9828C148.802 61.9828 147.242 60.6136 147.242 58.6928C147.242 56.7721 148.802 55.4029 150.944 55.4029C153.087 55.4029 154.672 56.7594 154.672 58.6928C154.672 60.6262 153.074 61.9828 150.944 61.9828ZM153.29 51.9798H148.586V50.4205H153.29V51.9798ZM150.944 60.4678C152.009 60.4678 152.84 59.7324 152.84 58.6928C152.84 57.6532 152.034 56.9052 150.944 56.9052C149.854 56.9052 149.093 57.6469 149.093 58.6928C149.093 59.7388 149.886 60.4678 150.944 60.4678ZM158.532 55.8276H160.757V57.406H158.532V64.9304H156.618V49.4316H158.532V55.834V55.8276Z" fill="white"/>
<path d="M163.312 62.1096L162.228 60.6072C165.809 58.883 168.034 55.7959 168.319 52.6391H163.096V51.0544H170.361C170.24 55.7325 168.015 59.5486 163.312 62.1096ZM175.02 64.9368H173.099V49.4189H175.02V64.9368Z" fill="white"/>
<path d="M93.1136 34.3448H84.7208L82.705 40.2971H79.1488L87.0979 18.2755H90.7872L98.7363 40.2971H95.1167L93.1009 34.3448H93.1136ZM85.5892 31.6H92.2452L88.9616 21.9394H88.8728L85.5956 31.6H85.5892Z" fill="white"/>
<path d="M115.94 32.2719C115.94 37.2607 113.272 40.4682 109.24 40.4682C106.952 40.4682 105.132 39.4476 104.188 37.6601H104.112V45.6092H100.815V24.2467H104.004V26.9154H104.067C104.98 25.1912 106.939 24.0756 109.177 24.0756C113.253 24.0756 115.934 27.2958 115.934 32.2719H115.94ZM112.555 32.2719C112.555 29.02 110.875 26.8837 108.315 26.8837C105.754 26.8837 104.105 29.0644 104.105 32.2719C104.105 35.4794 105.798 37.6727 108.315 37.6727C110.831 37.6727 112.555 35.5492 112.555 32.2719Z" fill="white"/>
<path d="M133.645 32.2719C133.645 37.2607 130.977 40.4682 126.945 40.4682C124.657 40.4682 122.837 39.4476 121.893 37.6601H121.817V45.6092H118.52V24.2467H121.709V26.9154H121.772C122.685 25.1912 124.644 24.0756 126.882 24.0756C130.958 24.0756 133.639 27.2958 133.639 32.2719H133.645ZM130.254 32.2719C130.254 29.02 128.574 26.8837 126.013 26.8837C123.452 26.8837 121.804 29.0644 121.804 32.2719C121.804 35.4794 123.497 37.6727 126.013 37.6727C128.53 37.6727 130.254 35.5492 130.254 32.2719Z" fill="white"/>
<path d="M145.385 34.1609C145.632 36.3416 147.749 37.7805 150.646 37.7805C153.543 37.7805 155.426 36.3479 155.426 34.3765C155.426 32.6649 154.222 31.6443 151.363 30.9407L148.51 30.2561C144.466 29.2799 142.589 27.3909 142.589 24.3228C142.589 20.5257 145.898 17.9141 150.602 17.9141C155.306 17.9141 158.443 20.5257 158.551 24.3228H155.223C155.027 22.1232 153.207 20.7983 150.551 20.7983C147.895 20.7983 146.082 22.1422 146.082 24.0946C146.082 25.6477 147.242 26.5668 150.082 27.2704L152.51 27.8663C157.023 28.9312 158.906 30.7505 158.906 33.9708C158.906 38.0911 155.629 40.6711 150.405 40.6711C145.524 40.6711 142.228 38.1545 142.013 34.1673H145.385V34.1609Z" fill="white"/>
<path d="M166.018 20.4433V24.2404H169.067V26.8521H166.018V35.7013C166.018 37.0769 166.627 37.7171 167.971 37.7171C168.307 37.7171 168.839 37.6727 169.055 37.641V40.2337C168.687 40.3224 167.958 40.3858 167.223 40.3858C163.971 40.3858 162.703 39.1687 162.703 36.0499V26.8521H160.37V24.2404H162.703V20.4433H166.018Z" fill="white"/>
<path d="M170.874 32.2719C170.874 27.2197 173.847 24.0438 178.487 24.0438C183.127 24.0438 186.1 27.2197 186.1 32.2719C186.1 37.3241 183.159 40.4936 178.487 40.4936C173.815 40.4936 170.874 37.3367 170.874 32.2719ZM182.741 32.2719C182.741 28.8044 181.156 26.7633 178.481 26.7633C175.806 26.7633 174.221 28.8235 174.221 32.2719C174.221 35.7203 175.806 37.7805 178.481 37.7805C181.156 37.7805 182.741 35.752 182.741 32.2719Z" fill="white"/>
<path d="M188.82 24.2404H191.964V26.9725H192.04C192.541 25.1595 194.005 24.0756 195.901 24.0756C196.376 24.0756 196.769 24.139 197.029 24.196V27.2768C196.769 27.169 196.186 27.0803 195.546 27.0803C193.422 27.0803 192.116 28.5129 192.116 30.7696V40.2907H188.82V24.2404Z" fill="white"/>
<path d="M212.217 35.5808C211.773 38.4968 208.94 40.4936 205.301 40.4936C200.636 40.4936 197.733 37.3684 197.733 32.3479C197.733 27.3274 200.649 24.0502 205.162 24.0502C209.675 24.0502 212.395 27.0992 212.395 31.9676V33.0959H201.061V33.2924C201.061 36.0372 202.785 37.8375 205.377 37.8375C207.209 37.8375 208.642 36.9691 209.086 35.5808H212.211H212.217ZM201.08 30.7885H209.105C209.029 28.3354 207.457 26.7126 205.168 26.7126C202.88 26.7126 201.244 28.3607 201.08 30.7885Z" fill="white"/>
<path d="M225.745 18.6494H228.312V39.2511H225.745V28.8552H223.862C223.627 32.5254 222.138 35.7203 219.12 35.7203C215.811 35.7203 214.347 31.8789 214.347 27.7775C214.347 23.6762 215.811 19.9108 219.12 19.9108C222.068 19.9108 223.558 22.8965 223.843 26.4527H225.738V18.6494H225.745ZM221.371 27.7712C221.371 24.7475 220.642 22.4338 219.127 22.4338C217.612 22.4338 216.971 24.7411 216.971 27.7712C216.971 30.8012 217.643 33.0896 219.127 33.0896C220.61 33.0896 221.371 30.8076 221.371 27.7712ZM232.8 18.2056V40.2844H230.233V18.2056H232.8Z" fill="white"/>
<path d="M244.413 23.3846C244.413 27.879 246.492 31.1055 249.864 32.9375L248.267 35.004C246.238 33.8503 243.697 31.3401 243.037 29.058C242.454 31.4732 239.95 34.3257 237.744 35.5745L236.058 33.5777C239.728 31.3971 241.592 27.9043 241.592 23.4797V20.063H244.419V23.3846H244.413ZM254.758 40.2844H252.007V28.1515H247.582V25.8315H252.007V18.212H254.758V40.2907V40.2844Z" fill="white"/>
</g>
<defs>
<clipPath id="clip0_4_130">
<rect width="280" height="81.8182" fill="white"/>
</clipPath>
</defs>
</svg>
