<svg width="50" height="50" viewBox="0 0 50 50" fill="none" xmlns="http://www.w3.org/2000/svg">
<g clip-path="url(#clip0_123_3704)">
<rect width="50" height="50" fill="black" fill-opacity="0.7"/>
<path d="M20.8563 23.959H22.725L21.7907 21.3041L20.8563 23.959Z" fill="white" fill-opacity="0.8"/>
<path d="M25.2223 10C16.2626 10 9 15.7262 9 22.7907C9 27.3579 12.037 31.3697 16.6042 33.6284C16.3562 34.4847 15.0069 39.1408 14.9539 39.5074C14.9539 39.5074 14.9211 39.7819 15.099 39.8865C15.1585 39.9165 15.2234 39.934 15.29 39.938C15.3565 39.9421 15.4231 39.9325 15.4858 39.9098C15.9974 39.8381 21.4132 36.0399 22.3491 35.3863C23.3011 35.5185 24.2612 35.5837 25.2223 35.5813C34.182 35.5813 41.4446 29.8551 41.4446 22.7907C41.4446 15.7262 34.182 10 25.2223 10ZM17.1938 20.805C17.1735 22.6144 17.2094 24.5174 17.1798 26.2987C17.1704 26.8681 16.8429 27.0381 16.3999 27.2003C16.3498 27.218 16.2959 27.2218 16.2439 27.2112C15.7369 27.1114 15.3329 26.9305 15.3205 26.3003C15.2846 24.5205 15.3314 22.6144 15.3064 20.805C14.8775 20.7878 14.266 20.8221 13.8682 20.805C13.3161 20.7691 12.9323 20.4181 12.9557 19.8956C12.9791 19.3731 13.2584 18.9971 13.8776 18.9878C15.3407 18.9659 17.1533 18.9659 18.6164 18.9878C19.2403 18.9971 19.518 19.3746 19.5367 19.8956C19.5554 20.4166 19.1779 20.7691 18.6273 20.805C18.2342 20.8221 17.6243 20.7878 17.1938 20.805ZM25.0554 27.1145C24.8683 27.1997 24.6651 27.2438 24.4595 27.244C24.0696 27.244 23.7716 27.088 23.6796 26.8306L23.2117 25.6171H20.3634L19.8955 26.8306C19.805 27.0849 19.5071 27.244 19.1155 27.244C18.9104 27.244 18.7077 27.1998 18.5212 27.1145C18.2623 26.996 18.0143 26.6684 18.2982 25.7855L20.5428 19.8925C20.6369 19.6329 20.8055 19.4068 21.0275 19.2426C21.2494 19.0783 21.5149 18.9832 21.7907 18.9691C22.0662 18.9847 22.3312 19.0806 22.5529 19.245C22.7746 19.4093 22.9434 19.6349 23.0385 19.894L25.2753 25.784C25.5608 26.6684 25.3128 27.0022 25.0554 27.1145ZM29.7848 27.1145H26.7821C26.5496 27.1191 26.3247 27.0315 26.1566 26.8707C25.9885 26.7099 25.8909 26.4891 25.8852 26.2566V19.905C25.8952 19.6582 26.0002 19.425 26.1783 19.2539C26.3564 19.0829 26.5937 18.9874 26.8406 18.9874C27.0875 18.9874 27.3249 19.0829 27.5029 19.2539C27.681 19.425 27.786 19.6582 27.796 19.905V25.4034H29.7848C29.9018 25.3963 30.019 25.4133 30.1293 25.4532C30.2395 25.4931 30.3404 25.5552 30.4257 25.6355C30.5111 25.7159 30.5791 25.8128 30.6256 25.9205C30.6721 26.0281 30.696 26.1441 30.696 26.2613C30.696 26.3785 30.6721 26.4945 30.6256 26.6021C30.5791 26.7097 30.5111 26.8067 30.4257 26.8871C30.3404 26.9674 30.2395 27.0295 30.1293 27.0694C30.019 27.1093 29.9018 27.1263 29.7848 27.1192V27.1145ZM37.116 26.4095C37.0917 26.5941 37.0128 26.7672 36.8895 26.9068C36.7662 27.0463 36.6041 27.1459 36.4239 27.1928C36.2436 27.2397 36.0535 27.2318 35.8779 27.17C35.7022 27.1083 35.5489 26.9956 35.4377 26.8462L33.243 23.9403L32.9185 24.2647V26.3065C32.9185 26.5547 32.8199 26.7928 32.6444 26.9683C32.4689 27.1438 32.2308 27.2424 31.9826 27.2424C31.7344 27.2424 31.4964 27.1438 31.3208 26.9683C31.1453 26.7928 31.0467 26.5547 31.0467 26.3065V19.9112C31.0467 19.663 31.1453 19.4249 31.3208 19.2494C31.4964 19.0739 31.7344 18.9753 31.9826 18.9753C32.2308 18.9753 32.4689 19.0739 32.6444 19.2494C32.8199 19.4249 32.9185 19.663 32.9185 19.9112V21.9171L35.5297 19.306C35.598 19.2384 35.6792 19.1851 35.7684 19.1492C35.8575 19.1133 35.953 19.0956 36.0491 19.097C36.2828 19.1031 36.506 19.1953 36.6759 19.356C36.8457 19.5166 36.9503 19.7343 36.9694 19.9674C36.9778 20.0713 36.9639 20.1759 36.9287 20.2741C36.8935 20.3723 36.8377 20.4618 36.7651 20.5367L34.6281 22.669L36.932 25.7216C37.0811 25.9196 37.1456 26.1686 37.1114 26.4142L37.116 26.4095Z" fill="white" fill-opacity="0.8"/>
</g>
<defs>
<clipPath id="clip0_123_3704">
<rect width="50" height="50" fill="white"/>
</clipPath>
</defs>
</svg>
