<svg width="50" height="50" viewBox="0 0 50 50" fill="none" xmlns="http://www.w3.org/2000/svg">
<g opacity="0.8" clip-path="url(#clip0_134_3756)">
<path fill-rule="evenodd" clip-rule="evenodd" d="M6.25 50H43.75C47.2013 49.9988 49.9988 47.2013 50 43.75V6.25C49.9988 2.7988 47.2013 0.0013 43.75 0H6.25C2.7988 0.0013 0.0013 2.7988 0 6.25V43.75C0.0013 47.2013 2.7988 49.9988 6.25 50ZM39.0269 10L27.8575 22.7043L40 40H31.0663L22.8865 28.3506L12.6464 40H10L21.7129 26.6788L10 10H18.9337L26.6777 21.0287L36.3804 10H39.0269ZM23.043 25.1633L24.2316 26.8252L32.3137 38.1429H36.3792L26.4723 24.2798L25.2887 22.6179L17.6663 11.9522H13.6008L23.043 25.1633Z" fill="white"/>
</g>
<defs>
<clipPath id="clip0_134_3756">
<rect width="50" height="50" fill="white"/>
</clipPath>
</defs>
</svg>
